PathFileType  4	(X/Y/Z) C:\Users\antoi\Documents\MyRepositories\mobilecap\ResultsAnalysis
DataRate	CameraRate	NumFrames	NumMarkers	Units	OrigDataRate	OrigDataStartFrame	OrigNumFrames
100.0	100.0	6	51	mm	100.0	149	170
Frame#	Time	r_knee			r_shank_antsup			r_ankle			r_calc			r_5meta			r_toe			L_knee			L_shank_antsup			L_ankle			L_calc			L_5meta			L_toe			r_sh2			r_sh3			r_sh4			L_sh2			L_sh3			r_thigh1			r_thigh2			r_thigh3			r_thigh4			r_thigh5			L_thigh1			L_thigh2			L_thigh3			L_thigh4			r.ASIS			r.PSIS			L.ASIS			L.PSIS			C7			R_Shoulder			L_Shoulder			R_Sternum			L_Sternum			R_humerus			R_elbow_med			R_elbow_lat			R_forearm			R_wrist_radius			R_wrist_ulna			L_humerus			L_elbow_med			L_elbow_lat			L_forearm			L_wrist_radius			L_wrist_ulna			R_HJC			L_HJC			R_HJC_reg			L_HJC_reg			
		X1	Y1	Z1	X2	Y2	Z2	X3	Y3	Z3	X4	Y4	Z4	X5	Y5	Z5	X6	Y6	Z6	X7	Y7	Z7	X8	Y8	Z8	X9	Y9	Z9	X10	Y10	Z10	X11	Y11	Z11	X12	Y12	Z12	X13	Y13	Z13	X14	Y14	Z14	X15	Y15	Z15	X16	Y16	Z16	X17	Y17	Z17	X18	Y18	Z18	X19	Y19	Z19	X20	Y20	Z20	X21	Y21	Z21	X22	Y22	Z22	X23	Y23	Z23	X24	Y24	Z24	X25	Y25	Z25	X26	Y26	Z26	X27	Y27	Z27	X28	Y28	Z28	X29	Y29	Z29	X30	Y30	Z30	X31	Y31	Z31	X32	Y32	Z32	X33	Y33	Z33	X34	Y34	Z34	X35	Y35	Z35	X36	Y36	Z36	X37	Y37	Z37	X38	Y38	Z38	X39	Y39	Z39	X40	Y40	Z40	X41	Y41	Z41	X42	Y42	Z42	X43	Y43	Z43	X44	Y44	Z44	X45	Y45	Z45	X46	Y46	Z46	X47	Y47	Z47	X48	Y48	Z48	X49	Y49	Z49	X50	Y50	Z50	X51	Y51	Z51	

149	1.48000000	1364.23159	462.37192	-46.72291	1428.70192	363.61819	-59.79547	1434.13904	82.08657	-89.54409	1396.90722	53.03453	-149.31135	1558.55216	43.18586	-68.03733	1593.28504	73.43947	-107.21960	1140.20358	448.56987	-344.45016	1108.78415	341.04584	-291.03067	882.08508	148.65638	-322.64494	814.38957	139.65158	-279.69912	958.78291	49.70413	-336.97720	992.15453	44.83462	-278.49572	1447.62560	253.24754	-76.71367	1369.33235	343.70328	-15.01190	1372.97019	234.28497	-42.18616	1092.83869	375.83964	-369.43854	1018.30886	281.84847	-378.10147	1377.10591	777.02761	-56.90079	1408.40950	669.96153	-55.17494	1368.71635	635.16361	-13.19623	1277.75151	747.75145	-12.31336	1311.90888	636.23169	-8.80591	1307.46459	702.90402	-369.45651	1272.43149	572.32683	-352.35839	1207.47096	730.70729	-416.21037	1168.00958	596.16330	-387.27045	1362.78884	913.73811	-96.74657	1181.63074	957.32283	-173.35822	1376.06194	883.81025	-340.93308	1189.84530	951.63400	-290.76706	1238.31910	1390.92806	-133.48235	1263.48442	1314.72983	9.51641	1334.91885	1394.26039	-279.36558	1353.99224	1317.10614	-108.88030	1365.95956	1326.98578	-149.99231	1246.51582	1181.72501	56.08326	1145.84285	1013.96398	-28.26490	1147.00586	1013.71192	45.57937	1163.62448	889.07165	73.02552	1179.96901	786.64778	78.70195	1142.25216	784.82498	81.29757	1366.11622	1259.40728	-365.53930	1287.04481	1066.41456	-367.03904	1318.49897	1087.24869	-430.40087	1375.98476	1007.81687	-450.99755	1419.38940	882.19018	-452.93273	1400.13006	878.73009	-478.48407	1268.95786	844.37228	-118.39198	1281.32915	820.99524	-305.90718	1288.18621	834.49576	-132.48166	1299.52360	826.64396	-294.50660	
150	1.49000000	1371.23827	463.82641	-46.43198	1434.19225	363.95315	-59.72266	1435.41815	81.80792	-89.62906	1397.36499	53.19640	-149.28918	1559.23550	42.13347	-68.23712	1594.24119	71.51708	-107.75769	1153.53366	448.33863	-342.56584	1120.19237	341.08416	-289.98206	889.03179	154.55828	-321.54599	821.64813	148.26519	-278.62012	961.38162	51.72771	-336.54368	994.08781	45.04079	-277.94454	1451.31942	253.22834	-76.78949	1374.76597	344.76166	-14.51864	1376.75166	235.29878	-41.61573	1104.53093	376.99747	-367.99512	1027.76952	284.72666	-376.93468	1387.91340	778.56782	-57.06327	1418.01188	671.07304	-55.50044	1378.06177	636.73219	-13.40716	1288.43379	750.51230	-12.16951	1321.48946	638.63942	-8.88503	1319.81646	703.24642	-368.07282	1285.54229	572.37269	-350.65941	1219.83138	729.55448	-414.71512	1181.09243	595.43298	-385.55241	1373.81529	916.26040	-96.11310	1193.13244	959.06611	-174.78737	1388.62730	884.69208	-339.77226	1202.30442	952.74686	-292.08806	1247.22250	1390.97179	-129.22800	1270.70642	1312.89352	12.82533	1345.75448	1396.75613	-273.98725	1362.68177	1317.23155	-104.00691	1375.42473	1327.90569	-144.81713	1254.71245	1179.47266	58.15969	1156.52309	1011.37404	-27.90930	1156.75557	1010.86483	45.85512	1172.95763	886.13910	73.23396	1188.93085	783.44906	79.31170	1151.35714	781.87503	80.97130	1376.85526	1262.68658	-361.82820	1297.19233	1069.92427	-363.87750	1328.78052	1090.61370	-427.25118	1386.34361	1011.03753	-447.53819	1429.61393	885.17458	-449.37393	1410.57606	882.08200	-475.21699	1280.00237	846.69423	-118.12234	1293.95442	821.98995	-305.36138	1299.45966	836.57018	-131.96671	1312.10547	827.85684	-293.70058	
151	1.50000000	1377.86983	465.11283	-46.13486	1439.46661	364.22340	-59.68078	1436.58334	81.60792	-89.85504	1397.70304	53.24008	-149.21625	1559.76464	41.34530	-68.39761	1594.99993	69.91365	-108.23716	1167.22026	448.05596	-340.72743	1132.02346	341.10238	-289.07692	896.51742	160.70712	-320.35576	829.63039	157.14358	-277.38045	964.20370	54.04234	-336.06494	996.24783	45.46330	-277.41643	1454.80589	253.18513	-76.93821	1379.96676	345.75501	-14.10620	1380.31082	236.25726	-41.15543	1116.44376	378.22811	-366.57120	1037.56088	287.78420	-375.74108	1398.47532	779.81994	-57.25257	1427.33891	671.91297	-55.72387	1387.09341	638.07078	-13.51235	1298.90684	753.04490	-11.98834	1330.73798	640.82887	-8.90450	1331.97200	703.83069	-366.68465	1298.79612	572.59384	-349.04407	1231.97069	728.53902	-413.10458	1194.28230	594.68120	-383.82638	1384.71476	918.59732	-95.29939	1204.53079	960.84793	-175.88751	1400.90227	885.85442	-338.40690	1214.49914	954.12972	-293.11373	1256.12527	1391.18221	-125.25754	1277.74274	1311.35077	15.81351	1356.44349	1399.35139	-268.88464	1371.34618	1317.61754	-99.37704	1384.64345	1328.91239	-139.99514	1262.73153	1177.56148	60.00955	1167.26417	1009.01429	-27.78213	1166.51900	1008.30277	45.94168	1182.40671	883.52925	73.31107	1198.07586	780.64380	79.87978	1160.62532	779.26959	80.51746	1387.46253	1266.14533	-358.45124	1307.31246	1073.57642	-361.01345	1339.03988	1094.07866	-424.40062	1396.68341	1014.34067	-444.37639	1439.95663	888.31969	-445.90306	1421.18034	885.52797	-472.07794	1290.84849	848.93011	-117.75617	1306.29021	823.23520	-304.74905	1310.60999	838.58510	-131.30703	1324.33334	829.33438	-292.71948	
152	1.51000000	1384.08948	466.21979	-45.83577	1444.42349	364.39303	-59.61710	1437.60145	81.56233	-90.18617	1397.96777	53.20476	-149.10632	1560.17990	40.72472	-68.50664	1595.61043	68.55364	-108.62499	1181.23277	447.72627	-338.99752	1144.29001	341.10797	-288.39501	904.50539	167.08438	-319.08434	838.34501	166.23703	-276.00149	967.25244	56.66609	-335.55073	998.67030	46.11585	-276.92883	1458.05848	253.10271	-77.08959	1384.80231	346.64451	-13.79601	1383.56514	237.13364	-40.84547	1128.51992	379.54133	-365.21396	1047.64616	291.05794	-374.56424	1408.77886	780.79817	-57.36063	1436.36636	672.49095	-55.75567	1395.77234	639.18069	-13.45491	1309.11556	755.32215	-11.73548	1339.58282	642.75927	-8.83895	1343.88940	704.61923	-365.31930	1312.16956	572.97531	-347.55946	1243.84092	727.80209	-411.50316	1207.51450	593.92680	-382.08635	1395.50266	920.72291	-94.37993	1215.78089	962.64357	-176.61370	1412.84197	887.23573	-336.94157	1226.39155	955.71800	-293.81544	1265.06106	1391.55397	-121.56040	1284.67747	1310.09997	18.49240	1366.97961	1402.00547	-264.07100	1380.02915	1318.22757	-95.02596	1393.67547	1329.98146	-135.55156	1270.57535	1175.99272	61.64831	1178.02715	1006.93693	-27.88270	1176.24512	1006.05815	45.81538	1191.93425	881.27901	73.23179	1207.41451	778.27709	80.32908	1170.07037	777.01799	79.89451	1397.97213	1269.71981	-355.35945	1317.38983	1077.32440	-358.55299	1349.32897	1097.63468	-421.90812	1407.07592	1017.73649	-441.55235	1450.48588	891.61890	-442.56508	1432.00379	889.04845	-469.10428	1301.52543	851.04243	-117.30362	1318.28227	824.67590	-304.09306	1321.61240	840.52201	-130.56605	1336.19206	831.00293	-291.64545	
153	1.52000000	1389.91009	467.15824	-45.53951	1448.99240	364.43912	-59.48404	1438.42818	81.73214	-90.57654	1398.19325	53.16575	-148.99076	1560.51188	40.19221	-68.55214	1596.10706	67.37435	-108.89146	1195.56745	447.36291	-337.44226	1157.03443	341.11688	-287.99489	913.00733	173.64163	-317.74768	847.82105	175.50201	-274.50821	970.53566	59.60223	-335.00899	1001.37138	46.99777	-276.48883	1461.05887	252.97169	-77.17720	1389.18825	347.40808	-13.58356	1386.46569	237.91909	-40.69585	1140.78030	380.95425	-363.96840	1058.02144	294.56139	-373.44001	1418.81591	781.54298	-57.26259	1445.08222	672.84760	-55.53937	1404.07494	640.07959	-13.21050	1319.00544	757.34221	-11.38701	1347.97568	644.42461	-8.69004	1355.56554	705.57132	-364.00254	1325.65607	573.50204	-346.24990	1255.41969	727.42207	-409.97333	1220.74379	593.18759	-380.32632	1406.18950	922.62249	-93.42464	1226.84759	964.42609	-176.94654	1424.41431	888.77586	-335.48492	1237.95464	957.43398	-294.17739	1274.05759	1392.07691	-118.10345	1291.61808	1309.12618	20.89088	1377.36121	1404.67528	-259.54295	1388.77006	1319.01422	-90.97757	1402.62090	1331.10633	-131.47522	1278.26092	1174.75228	63.10552	1188.78613	1005.18300	-28.20014	1185.88814	1004.14976	45.46162	1201.50417	879.40367	72.97387	1216.93735	776.35412	80.57767	1179.69965	775.11155	79.06393	1408.40903	1273.33526	-352.48908	1327.41421	1081.10573	-356.56310	1359.67776	1101.26918	-419.80616	1417.59555	1021.24298	-439.07303	1461.27762	895.07782	-439.40385	1443.11234	892.63889	-466.32181	1312.06588	852.99965	-116.78048	1329.89465	826.25308	-303.41869	1332.44568	842.37248	-129.79833	1347.67384	832.78273	-290.55699	
154	1.53000000	1395.38198	467.95398	-45.24890	1453.14741	364.35214	-59.25436	1439.02622	82.14236	-90.98419	1398.40149	53.19892	-148.89756	1560.78285	39.69189	-68.52850	1596.51477	66.32803	-109.02261	1210.24518	446.97670	-336.12015	1170.31767	341.14086	-287.90280	922.08658	180.29543	-316.36688	858.11343	184.89461	-272.92115	974.05819	62.84061	-334.44058	1004.34736	48.09508	-276.09341	1463.80749	252.78987	-77.15692	1393.11269	348.04498	-13.44411	1389.01318	238.61980	-40.68520	1153.32375	382.47975	-362.87004	1068.71677	298.26522	-372.38633	1428.57781	782.10218	-56.85725	1453.48133	673.03406	-55.05010	1411.99420	640.79546	-12.77761	1328.52998	759.12304	-10.92906	1355.90099	645.85397	-8.47204	1367.03109	706.64689	-362.76011	1339.25665	574.15416	-345.15707	1266.71010	727.37743	-408.49494	1233.95704	592.46583	-378.55536	1416.77675	924.29684	-92.48499	1237.70917	966.16858	-176.89051	1435.60116	890.41866	-334.12543	1249.17006	959.19399	-294.19462	1283.12942	1392.73184	-114.84283	1298.68050	1308.40272	23.05215	1387.59138	1407.31946	-255.29067	1397.60099	1319.92483	-87.24270	1411.58530	1332.28569	-127.73114	1285.82378	1173.81152	64.41816	1199.53024	1003.77294	-28.71392	1195.42006	1002.57753	44.87990	1211.08572	877.89248	72.52244	1226.61721	774.84945	80.56549	1189.50631	773.52805	77.99974	1418.78196	1276.91656	-349.78193	1337.38320	1084.85044	-355.06035	1370.08637	1104.96235	-418.09921	1428.30062	1024.87231	-436.91569	1472.39859	898.70732	-436.45516	1454.56264	896.30561	-463.74577	1322.49857	854.78162	-116.19772	1341.11121	827.90698	-302.74133	1343.09595	844.14013	-129.03196	1358.77347	834.59711	-289.50614	
